<svg width="12" height="11" viewBox="0 0 12 11" fill="none" xmlns="http://www.w3.org/2000/svg">
<path d="M10.9998 3.99992H3.41381L5.70681 1.70692C5.88897 1.51832 5.98976 1.26571 5.98749 1.00352C5.98521 0.741321 5.88004 0.490508 5.69463 0.3051C5.50922 0.119692 5.25841 0.0145233 4.99621 0.0122448C4.73402 0.00996641 4.48141 0.110761 4.29281 0.292919L0.292811 4.29292C0.199685 4.38581 0.125799 4.49616 0.0753859 4.61765C0.024973 4.73914 -0.000976563 4.86938 -0.000976562 5.00092C-0.000976563 5.13245 0.024973 5.2627 0.0753859 5.38419C0.125799 5.50568 0.199685 5.61603 0.292811 5.70892L4.29281 9.70892C4.38579 9.80176 4.49614 9.87539 4.61757 9.92558C4.739 9.97578 4.86912 10.0016 5.00052 10.0015C5.13191 10.0014 5.262 9.97541 5.38336 9.92504C5.50472 9.87467 5.61497 9.80089 5.70781 9.70792C5.80066 9.61494 5.87428 9.50459 5.92448 9.38316C5.97467 9.26173 6.00046 9.13161 6.00037 9.00021C6.00027 8.86882 5.9743 8.73873 5.92393 8.61737C5.87357 8.49601 5.79979 8.38576 5.70681 8.29292L3.41381 5.99992H10.9998C11.265 5.99992 11.5194 5.89456 11.7069 5.70703C11.8945 5.51949 11.9998 5.26514 11.9998 4.99992C11.9998 4.7347 11.8945 4.48035 11.7069 4.29281C11.5194 4.10528 11.265 3.99992 10.9998 3.99992Z" fill="#C81D31"/>
</svg>
