<svg width="12" height="12" viewBox="0 0 12 12" fill="none" xmlns="http://www.w3.org/2000/svg">
<path d="M10.9303 4.25146L9.86228 5.31946C10.0708 5.57971 10.2418 5.81746 10.364 5.99971C9.79403 6.84721 8.22653 8.86471 6.19328 8.98846L4.83203 10.3497C5.20403 10.4427 5.59253 10.4997 5.99978 10.4997C9.53003 10.4997 11.8078 6.53671 11.903 6.36871C12.0313 6.14071 12.032 5.86171 11.9038 5.63371C11.8685 5.56996 11.5288 4.97296 10.9303 4.25146Z" fill="#4F525D"/>
<path d="M0.219543 11.7799C0.365793 11.9262 0.557793 11.9997 0.749793 11.9997C0.941793 11.9997 1.13379 11.9262 1.28004 11.7799L11.78 1.27995C12.0733 0.986699 12.0733 0.512699 11.78 0.219449C11.4868 -0.0738008 11.0128 -0.0738008 10.7195 0.219449L8.66079 2.2782C7.88604 1.82295 6.99804 1.4997 5.99979 1.4997C2.43354 1.4997 0.188043 5.46645 0.0942931 5.6352C-0.0324569 5.86245 -0.0317069 6.1392 0.0957931 6.36645C0.148293 6.4602 0.878793 7.71795 2.11554 8.82345L0.218793 10.7202C-0.0737069 11.0127 -0.0737069 11.4867 0.219543 11.7799ZM1.63554 5.99895C2.21829 5.12595 3.85929 2.9997 5.99979 2.9997C6.55629 2.9997 7.07754 3.15045 7.55829 3.3807L6.38379 4.5552C6.26079 4.52145 6.13329 4.4997 5.99979 4.4997C5.17104 4.4997 4.49979 5.17095 4.49979 5.9997C4.49979 6.1332 4.52154 6.2607 4.55529 6.3837L3.17979 7.7592C2.46354 7.1322 1.91904 6.4212 1.63554 5.99895Z" fill="#4F525D"/>
</svg>
