<svg width="22" height="23" viewBox="0 0 22 23" fill="none" xmlns="http://www.w3.org/2000/svg">
<path d="M11 4.50006C12.5273 4.49913 14.0056 5.03883 15.173 6.02356L18.443 2.90956C17.1877 1.75211 15.6799 0.903158 14.0393 0.430091C12.3987 -0.0429753 10.6704 -0.127138 8.99161 0.184282C7.31279 0.495702 5.72967 1.19413 4.36787 2.22415C3.00608 3.25416 1.90311 4.5874 1.14648 6.11806L4.83298 8.95956C5.26292 7.6631 6.08986 6.53478 7.19669 5.73441C8.30351 4.93404 9.6341 4.5022 11 4.50006Z" fill="#D94F3D"/>
<path d="M4.5 11.0002C4.50092 10.3065 4.61335 9.61759 4.833 8.95966L1.1465 6.11816C0.392423 7.63511 0 9.30613 0 11.0002C0 12.6942 0.392423 14.3652 1.1465 15.8822L4.833 13.0407C4.61335 12.3827 4.50092 11.6938 4.5 11.0002Z" fill="#F2C042"/>
<path d="M21.55 9H11.05V13.5H17C16.646 14.7724 15.8351 15.8694 14.7225 16.581L18.3805 19.401C20.718 17.303 22.0915 13.8915 21.55 9Z" fill="#5085ED"/>
<path d="M14.721 16.581C13.5905 17.2281 12.3017 17.5464 11 17.5C9.6341 17.4979 8.30351 17.066 7.19669 16.2657C6.08986 15.4653 5.26292 14.337 4.83298 13.0405L1.14648 15.882C2.05705 17.7176 3.46171 19.2627 5.20246 20.3435C6.9432 21.4243 8.95099 21.998 11 22C13.6962 22.0733 16.3243 21.1473 18.379 19.4L14.721 16.581Z" fill="#57A75C"/>
</svg>
