<svg width="6" height="8" viewBox="0 0 6 8" fill="none" xmlns="http://www.w3.org/2000/svg">
<path d="M5.24994 4C5.2499 4.1989 5.17085 4.38963 5.03019 4.53025L2.03019 7.53025C1.88874 7.66687 1.69929 7.74246 1.50264 7.74076C1.30599 7.73905 1.11788 7.66017 0.978825 7.52111C0.839769 7.38206 0.760892 7.19395 0.759183 6.9973C0.757474 6.80065 0.83307 6.6112 0.969689 6.46975L3.43944 4L0.969689 1.53025C0.898056 1.46106 0.840919 1.37831 0.801613 1.2868C0.762306 1.1953 0.741616 1.09688 0.740751 0.9973C0.739885 0.897716 0.758861 0.798956 0.796572 0.706784C0.834283 0.614612 0.889973 0.530873 0.960392 0.460454C1.03081 0.390034 1.11455 0.334344 1.20672 0.296634C1.2989 0.258923 1.39766 0.239946 1.49724 0.240811C1.59682 0.241677 1.69524 0.262367 1.78674 0.301673C1.87824 0.34098 1.961 0.398117 2.03019 0.46975L5.03019 3.46975C5.17085 3.61037 5.2499 3.8011 5.24994 4Z" fill="#232734"/>
</svg>
