<svg width="24" height="24" viewBox="0 0 24 24" fill="none" xmlns="http://www.w3.org/2000/svg">
<path d="M12 23.5C18.3513 23.5 23.5 18.3513 23.5 12C23.5 5.64873 18.3513 0.5 12 0.5C5.64873 0.5 0.5 5.64873 0.5 12C0.5 18.3513 5.64873 23.5 12 23.5Z" fill="#1877F2"/>
<path d="M16.4765 15.3242L16.9865 12.0002H13.797V9.84319C13.797 8.93369 14.2425 8.04719 15.671 8.04719H17.121V5.21719C16.2696 5.07941 15.4093 5.00421 14.547 4.99219C11.92 4.99219 10.203 6.58419 10.203 9.46669V12.0002H7.28299V15.3242H10.203V23.3602C11.3937 23.5469 12.6063 23.5469 13.797 23.3602V15.3242H16.4765Z" fill="white"/>
</svg>
