<svg width="16" height="16" viewBox="0 0 16 16" fill="none" xmlns="http://www.w3.org/2000/svg">
<g clip-path="url(#clip0_484_17388)">
<path d="M6 0H0.666667C0.298477 0 0 0.298477 0 0.666667V6C0 6.36819 0.298477 6.66667 0.666667 6.66667H6C6.36819 6.66667 6.66667 6.36819 6.66667 6V0.666667C6.66667 0.298477 6.36819 0 6 0Z" fill="#C81D31"/>
<path d="M15.3335 0H10.0002C9.63197 0 9.3335 0.298477 9.3335 0.666667V6C9.3335 6.36819 9.63197 6.66667 10.0002 6.66667H15.3335C15.7017 6.66667 16.0002 6.36819 16.0002 6V0.666667C16.0002 0.298477 15.7017 0 15.3335 0Z" fill="#C81D31"/>
<path d="M6 9.3335H0.666667C0.298477 9.3335 0 9.63197 0 10.0002V15.3335C0 15.7017 0.298477 16.0002 0.666667 16.0002H6C6.36819 16.0002 6.66667 15.7017 6.66667 15.3335V10.0002C6.66667 9.63197 6.36819 9.3335 6 9.3335Z" fill="#C81D31"/>
<path d="M15.3335 9.3335H10.0002C9.63197 9.3335 9.3335 9.63197 9.3335 10.0002V15.3335C9.3335 15.7017 9.63197 16.0002 10.0002 16.0002H15.3335C15.7017 16.0002 16.0002 15.7017 16.0002 15.3335V10.0002C16.0002 9.63197 15.7017 9.3335 15.3335 9.3335Z" fill="#C81D31"/>
</g>
<defs>
<clipPath id="clip0_484_17388">
<rect width="16" height="16" fill="white"/>
</clipPath>
</defs>
</svg>
