<svg width="12" height="12" viewBox="0 0 12 12" fill="none" xmlns="http://www.w3.org/2000/svg">
<path d="M6.58333 4.25H5.41667V5.41667H6.58333V4.25ZM8.91667 4.25H7.75V5.41667H8.91667V4.25ZM10.6667 8.04167C9.9375 8.04167 9.2375 7.925 8.58417 7.70917C8.4816 7.6765 8.3721 7.67227 8.26731 7.69692C8.16253 7.72157 8.0664 7.77419 7.98917 7.84917L6.70583 9.1325C5.05144 8.29086 3.70582 6.94728 2.86167 5.29417L4.145 4.005C4.30833 3.8475 4.355 3.62 4.29083 3.41583C4.06955 2.74387 3.95729 2.0408 3.95833 1.33333C3.95833 1.0125 3.69583 0.75 3.375 0.75H1.33333C1.0125 0.75 0.75 1.0125 0.75 1.33333C0.75 6.81083 5.18917 11.25 10.6667 11.25C10.9875 11.25 11.25 10.9875 11.25 10.6667V8.625C11.25 8.30417 10.9875 8.04167 10.6667 8.04167ZM10.0833 4.25V5.41667H11.25V4.25H10.0833Z" fill="#C81D31"/>
</svg>
