<svg width="14" height="14" viewBox="0 0 14 14" fill="none" xmlns="http://www.w3.org/2000/svg">
<path d="M13.475 3.675L10.85 0.175C10.7625 0.04375 10.6313 0 10.5 0H3.5C3.36875 0 3.2375 0.04375 3.15 0.175L0.525 3.675C0.48125 3.7625 0.4375 3.85 0.4375 3.9375C0.4375 5.46875 1.44375 6.125 2.40625 6.125C3.0625 6.125 3.5875 5.90625 3.9375 5.5125C4.2875 5.90625 4.85625 6.125 5.5125 6.125C6.125 6.125 6.65 5.90625 7 5.55625C7.35 5.90625 7.875 6.125 8.4875 6.125C9.14375 6.125 9.7125 5.90625 10.0625 5.5125C10.4125 5.90625 10.9375 6.125 11.5938 6.125C12.5562 6.125 13.5625 5.46875 13.5625 3.9375C13.5625 3.85 13.5187 3.7625 13.475 3.675Z" fill="#C81D31"/>
<path d="M11.375 7C10.1062 7 8.75 7.9625 8.75 9.625C8.75 11.1125 10.85 13.2562 11.0687 13.475C11.1562 13.5625 11.2875 13.6063 11.375 13.6063C11.4625 13.6063 11.5938 13.5625 11.6813 13.475C11.9 13.2562 14 11.1125 14 9.625C14 7.9625 12.6437 7 11.375 7ZM11.375 10.5C10.8937 10.5 10.5 10.1063 10.5 9.625C10.5 9.14375 10.8937 8.75 11.375 8.75C11.8563 8.75 12.25 9.14375 12.25 9.625C12.25 10.1063 11.8563 10.5 11.375 10.5Z" fill="#C81D31"/>
<path d="M7.875 9.62495C7.875 8.4437 8.4 7.52495 9.1 6.9562C8.88125 6.99995 8.70625 6.99995 8.4875 6.99995C7.91875 6.99995 7.4375 6.8687 7 6.64995C6.5625 6.8687 6.08125 6.99995 5.5125 6.99995C4.94375 6.99995 4.41875 6.8687 3.9375 6.6062C3.5 6.8687 2.975 6.99995 2.40625 6.99995C2.1875 6.99995 1.96875 6.9562 1.75 6.91245V12.6875C1.75 12.95 1.925 13.125 2.1875 13.125H9.58125C8.79375 12.2062 7.875 10.8062 7.875 9.62495Z" fill="#C81D31"/>
</svg>
