<svg width="16" height="16" viewBox="0 0 16 16" fill="none" xmlns="http://www.w3.org/2000/svg">
<path d="M10 14.6665H6.00004C5.82323 14.6665 5.65366 14.7367 5.52864 14.8618C5.40361 14.9868 5.33337 15.1564 5.33337 15.3332C5.33337 15.51 5.40361 15.6796 5.52864 15.8046C5.65366 15.9296 5.82323 15.9998 6.00004 15.9998H10C10.1769 15.9998 10.3464 15.9296 10.4714 15.8046C10.5965 15.6796 10.6667 15.51 10.6667 15.3332C10.6667 15.1564 10.5965 14.9868 10.4714 14.8618C10.3464 14.7367 10.1769 14.6665 10 14.6665Z" fill="white"/>
<path d="M10.6667 7.99988H13.3334C13.4589 7.99996 13.5819 7.96457 13.6883 7.8978C13.7946 7.83102 13.8799 7.73558 13.9344 7.62245C13.9889 7.50932 14.0103 7.38311 13.9962 7.25835C13.9821 7.13358 13.933 7.01533 13.8547 6.91722L8.52135 0.25055C8.45664 0.175746 8.37659 0.115744 8.28663 0.0746182C8.19668 0.0334926 8.09893 0.012207 8.00002 0.012207C7.90111 0.012207 7.80336 0.0334926 7.7134 0.0746182C7.62345 0.115744 7.5434 0.175746 7.47868 0.25055L2.14535 6.91722C2.067 7.01533 2.01795 7.13358 2.00385 7.25835C1.98975 7.38311 2.01117 7.50932 2.06564 7.62245C2.12012 7.73558 2.20543 7.83102 2.31176 7.8978C2.4181 7.96457 2.54112 7.99996 2.66668 7.99988H5.33335V12.6666C5.33335 12.8434 5.40359 13.0129 5.52861 13.138C5.65364 13.263 5.82321 13.3332 6.00002 13.3332H10C10.1768 13.3332 10.3464 13.263 10.4714 13.138C10.5964 13.0129 10.6667 12.8434 10.6667 12.6666V7.99988Z" fill="white"/>
</svg>
