<svg width="16" height="14" viewBox="0 0 16 14" fill="none" xmlns="http://www.w3.org/2000/svg">
<path d="M11.1479 0.333508C10.5502 0.332068 9.95931 0.460167 9.41587 0.708986C8.87242 0.957805 8.38935 1.32143 7.99991 1.77484C7.61047 1.32143 7.1274 0.957805 6.58396 0.708986C6.04052 0.460167 5.44961 0.332068 4.85191 0.333508C4.03401 0.331666 3.23356 0.570049 2.54993 1.01907C1.8663 1.46809 1.32957 2.10799 1.00637 2.85933C0.683171 3.61067 0.587724 4.44039 0.731875 5.24549C0.876027 6.0506 1.25343 6.79565 1.81725 7.38817L7.51925 13.3142C7.58146 13.3789 7.6561 13.4304 7.73869 13.4656C7.82129 13.5008 7.91014 13.5189 7.99991 13.5189C8.08969 13.5189 8.17854 13.5008 8.26114 13.4656C8.34373 13.4304 8.41837 13.3789 8.48058 13.3142L14.1826 7.38817L14.1872 7.38351C14.7498 6.7905 15.1259 6.04544 15.269 5.24068C15.4122 4.43593 15.316 3.60687 14.9924 2.85627C14.6688 2.10567 14.132 1.46653 13.4486 1.01809C12.7653 0.569651 11.9653 0.331621 11.1479 0.333508V0.333508Z" fill="#C81D31"/>
</svg>
