<svg width="16" height="16" viewBox="0 0 16 16" fill="none" xmlns="http://www.w3.org/2000/svg">
<g clip-path="url(#clip0_484_17401)">
<path d="M15.829 7.62398L11.829 4.12398C11.7567 4.06082 11.6678 4.0198 11.5728 4.00582C11.4779 3.99184 11.3809 4.00549 11.2935 4.04514C11.2061 4.08478 11.1319 4.14876 11.0799 4.22941C11.0278 4.31006 11.0001 4.40399 11 4.49998V6.99998H9C8.73478 6.99998 8.48043 7.10534 8.29289 7.29287C8.10536 7.48041 8 7.73476 8 7.99998C8 8.2652 8.10536 8.51955 8.29289 8.70709C8.48043 8.89462 8.73478 8.99998 9 8.99998H11V11.5C11.0001 11.596 11.0278 11.6899 11.0799 11.7705C11.1319 11.8512 11.2061 11.9152 11.2935 11.9548C11.3809 11.9945 11.4779 12.0081 11.5728 11.9941C11.6678 11.9802 11.7567 11.9391 11.829 11.876L15.829 8.37598C15.8825 8.32905 15.9254 8.27123 15.9548 8.20639C15.9842 8.14154 15.9994 8.07117 15.9994 7.99998C15.9994 7.92879 15.9842 7.85841 15.9548 7.79357C15.9254 7.72873 15.8825 7.67091 15.829 7.62398Z" fill="#C81D31"/>
<path d="M3.414 2H8V3C8 3.26522 8.10536 3.51957 8.29289 3.70711C8.48043 3.89464 8.73478 4 9 4C9.26522 4 9.51957 3.89464 9.70711 3.70711C9.89464 3.51957 10 3.26522 10 3V1C10 0.734784 9.89464 0.48043 9.70711 0.292893C9.51957 0.105357 9.26522 0 9 0L1 0C0.982191 0.00108618 0.964481 0.0034253 0.947 0.007C0.912 0.009 0.878 0.015 0.843 0.02C0.765728 0.0297213 0.689871 0.0485177 0.617 0.076C0.434314 0.151744 0.278189 0.279956 0.168365 0.444425C0.0585414 0.608894 -4.9735e-05 0.802234 3.16771e-08 1V10C5.66691e-05 10.2652 0.105451 10.5195 0.293 10.707L5.293 15.707C5.48049 15.8945 5.73481 15.9999 6 16C6.13145 16.0004 6.26167 15.9746 6.383 15.924C6.56569 15.8483 6.72181 15.72 6.83163 15.5556C6.94146 15.3911 7.00005 15.1978 7 15V6C6.99994 5.73481 6.89455 5.48049 6.707 5.293L3.414 2Z" fill="#C81D31"/>
</g>
<defs>
<clipPath id="clip0_484_17401">
<rect width="16" height="16" fill="white"/>
</clipPath>
</defs>
</svg>
