<svg width="16" height="16" viewBox="0 0 16 16" fill="none" xmlns="http://www.w3.org/2000/svg">
<g clip-path="url(#clip0_484_17356)">
<path d="M14.0002 0.000237932H2.00024C1.86682 -0.00778171 1.73323 0.01259 1.60827 0.060008C1.48331 0.107426 1.36983 0.180811 1.27532 0.275319C1.18081 0.369827 1.10743 0.483307 1.06001 0.608267C1.01259 0.733227 0.992218 0.866825 1.00024 1.00024V16.0002L4.00024 14.0002L6.00024 16.0002L8.00024 14.0002L10.0002 16.0002L12.0002 14.0002L15.0002 16.0002V1.00024C15.0083 0.866825 14.9879 0.733227 14.9405 0.608267C14.8931 0.483307 14.8197 0.369827 14.7252 0.275319C14.6306 0.180811 14.5172 0.107426 14.3922 0.060008C14.2672 0.01259 14.1337 -0.00778171 14.0002 0.000237932ZM8.00024 10.0002H4.00024V8.00024H8.00024V10.0002ZM8.00024 6.00024H4.00024V4.00024H8.00024V6.00024ZM11.0002 10.0002C10.8025 10.0002 10.6091 9.94159 10.4447 9.83171C10.2802 9.72183 10.152 9.56565 10.0764 9.38292C10.0007 9.2002 9.98087 8.99913 10.0195 8.80515C10.058 8.61117 10.1533 8.43298 10.2931 8.29313C10.433 8.15328 10.6112 8.05804 10.8051 8.01945C10.9991 7.98087 11.2002 8.00067 11.3829 8.07636C11.5656 8.15205 11.7218 8.28022 11.8317 8.44467C11.9416 8.60912 12.0002 8.80246 12.0002 9.00024C12.0002 9.26545 11.8949 9.51981 11.7073 9.70734C11.5198 9.89488 11.2655 10.0002 11.0002 10.0002ZM11.0002 6.00024C10.8025 6.00024 10.6091 5.94159 10.4447 5.83171C10.2802 5.72183 10.152 5.56565 10.0764 5.38292C10.0007 5.2002 9.98087 4.99913 10.0195 4.80515C10.058 4.61117 10.1533 4.43298 10.2931 4.29313C10.433 4.15328 10.6112 4.05804 10.8051 4.01945C10.9991 3.98087 11.2002 4.00067 11.3829 4.07636C11.5656 4.15205 11.7218 4.28022 11.8317 4.44467C11.9416 4.60912 12.0002 4.80246 12.0002 5.00024C12.0002 5.26545 11.8949 5.51981 11.7073 5.70734C11.5198 5.89488 11.2655 6.00024 11.0002 6.00024Z" fill="#C81D31"/>
</g>
<defs>
<clipPath id="clip0_484_17356">
<rect width="16" height="16" fill="white"/>
</clipPath>
</defs>
</svg>
