<svg width="24" height="22" viewBox="0 0 24 22" fill="none" xmlns="http://www.w3.org/2000/svg">
    <path d="M9 0H0V2H9V0Z" fill="#4F525D"/>
    <path d="M9 4H2V6H9V4Z" fill="#4F525D"/>
    <path d="M9 8H4V10H9V8Z" fill="#4F525D"/>
    <path d="M9 12H6V14H9V12Z" fill="#4F525D"/>
    <path d="M23.447 10.105L19.858 8.311L18.97 4.758C18.859 4.312 18.459 4 18 4H16.375H11C11 4 11 16.451 11 17C11 17.549 11.051 18 11.051 18C11.303 20.244 13.19 22 15.5 22C17.81 22 19.697 20.244 19.949 18H23C23.552 18 24 17.552 24 17V11C24 10.621 23.786 10.275 23.447 10.105ZM15.5 20C14.122 20 13 18.879 13 17.5C13 16.121 14.122 15 15.5 15C16.878 15 18 16.121 18 17.5C18 18.879 16.878 20 15.5 20ZM13 9V6H17.344L18 9H13Z" fill="#4F525D"/>
</svg>
