<svg width="343" height="324" viewBox="0 0 343 324" fill="none" xmlns="http://www.w3.org/2000/svg">
<path fill-rule="evenodd" clip-rule="evenodd" d="M14.0645 6C14.0645 4.89543 14.9599 4 16.0645 4L232.634 4C233.255 4 233.842 4.28924 234.22 4.78262L342.008 145.28C342.276 145.629 342.421 146.057 342.421 146.497V323.889H110.564L14.6261 224.581C14.2658 224.208 14.0645 223.71 14.0645 223.192V6Z" fill="url(#paint0_linear_585_19860)"/>
<g filter="url(#filter0_d_585_19860)">
<rect x="11.0645" y="1" width="220" height="220" rx="4" fill="white"/>
</g>
<path opacity="0.487092" fill-rule="evenodd" clip-rule="evenodd" d="M26.0645 18.0001C26.0645 16.8955 26.9599 16.0001 28.0645 16.0001H215.064C216.169 16.0001 217.064 16.8955 217.064 18.0001V206C217.064 207.105 216.169 208 215.064 208H28.0645C26.9599 208 26.0645 207.105 26.0645 206V18.0001Z" fill="url(#paint1_linear_585_19860)"/>
<g clip-path="url(#clip0_585_19860)">
<path fill-rule="evenodd" clip-rule="evenodd" d="M25.0638 15H218.064V160.066L214.091 153.028L210.431 165.757L204.634 159.523L199.624 162.066L184.774 159.523L182.027 208L175.669 208.107L171.035 206.456L161.812 208L155.448 205.398L145.834 208L140.834 147.991L135.506 208L127.422 206.401L119.921 208.774L110.085 206L95.0016 208L90.5548 204.931L85.8099 208H75.336V75C75.336 75 71.3279 132.981 63.7752 147.991C60.5475 154.406 55.3475 156.147 51.9449 157.636C47.3857 159.632 43.9404 160.066 32.5811 160.066C12.7439 160.066 5.89648 139.029 5.89648 139.029C5.89648 139.029 13.5415 133.698 18.3254 122.855C23.1092 112.012 25.0638 75 25.0638 75V15Z" fill="url(#paint2_linear_585_19860)"/>
<mask id="mask0_585_19860" style="mask-type:luminance" maskUnits="userSpaceOnUse" x="5" y="15" width="214" height="194">
<path fill-rule="evenodd" clip-rule="evenodd" d="M25.0638 15H218.064V160.066L214.091 153.028L210.431 165.757L204.634 159.523L199.624 162.066L184.774 159.523L182.027 208L175.669 208.107L171.035 206.456L161.812 208L155.448 205.398L145.834 208L140.834 147.991L135.506 208L127.422 206.401L119.921 208.774L110.085 206L95.0016 208L90.5548 204.931L85.8099 208H75.336V75C75.336 75 71.3279 132.981 63.7752 147.991C60.5475 154.406 55.3475 156.147 51.9449 157.636C47.3857 159.632 43.9404 160.066 32.5811 160.066C12.7439 160.066 5.89648 139.029 5.89648 139.029C5.89648 139.029 13.5415 133.698 18.3254 122.855C23.1092 112.012 25.0638 75 25.0638 75V15Z" fill="white"/>
</mask>
<g mask="url(#mask0_585_19860)">
<path opacity="0.2" d="M27.849 129.91V117.076L57.237 75.04H75V116.146H82.626V129.91H75V142H59.097V129.91H27.849ZM60.213 92.524L44.589 116.146H60.213V92.524ZM90.4155 107.125C90.4155 96.461 92.4615 88.06 96.5535 81.922C100.707 75.784 107.372 72.715 116.548 72.715C125.724 72.715 132.358 75.784 136.45 81.922C140.604 88.06 142.681 96.461 142.681 107.125C142.681 117.913 140.604 126.376 136.45 132.514C132.358 138.652 125.724 141.721 116.548 141.721C107.372 141.721 100.707 138.652 96.5535 132.514C92.4615 126.376 90.4155 117.913 90.4155 107.125ZM127.057 107.125C127.057 100.863 126.375 96.058 125.011 92.71C123.647 89.3 120.826 87.595 116.548 87.595C112.27 87.595 109.449 89.3 108.085 92.71C106.721 96.058 106.039 100.863 106.039 107.125C106.039 111.341 106.287 114.844 106.783 117.634C107.279 120.362 108.271 122.594 109.759 124.33C111.309 126.004 113.572 126.841 116.548 126.841C119.524 126.841 121.756 126.004 123.244 124.33C124.794 122.594 125.817 120.362 126.313 117.634C126.809 114.844 127.057 111.341 127.057 107.125ZM151.455 129.91V117.076L180.843 75.04H198.606V116.146H206.232V129.91H198.606V142H182.703V129.91H151.455ZM183.819 92.524L168.195 116.146H183.819V92.524Z" fill="url(#paint3_linear_585_19860)"/>
</g>
</g>
<path fill-rule="evenodd" clip-rule="evenodd" d="M0 130.557H51.327C51.327 130.557 55.2096 150.019 63.9539 147.769C60.1589 155.489 52.2461 161.496 35.417 161.496C18.588 161.496 11.6191 155.072 7.45388 150.578C3.2887 146.085 0 130.557 0 130.557Z" fill="url(#paint4_linear_585_19860)"/>
<defs>
<filter id="filter0_d_585_19860" x="6.06445" y="0" width="250" height="250" filterUnits="userSpaceOnUse" color-interpolation-filters="sRGB">
<feFlood flood-opacity="0" result="BackgroundImageFix"/>
<feColorMatrix in="SourceAlpha" type="matrix" values="0 0 0 0 0 0 0 0 0 0 0 0 0 0 0 0 0 0 127 0" result="hardAlpha"/>
<feOffset dx="10" dy="14"/>
<feGaussianBlur stdDeviation="7.5"/>
<feColorMatrix type="matrix" values="0 0 0 0 0.230539 0 0 0 0 0.370572 0 0 0 0 0.482993 0 0 0 0.0403646 0"/>
<feBlend mode="normal" in2="BackgroundImageFix" result="effect1_dropShadow_585_19860"/>
<feBlend mode="normal" in="SourceGraphic" in2="effect1_dropShadow_585_19860" result="shape"/>
</filter>
<linearGradient id="paint0_linear_585_19860" x1="365.158" y1="124.51" x2="132.449" y2="-118.527" gradientUnits="userSpaceOnUse">
<stop stop-color="white" stop-opacity="0.01"/>
<stop offset="1" stop-color="#A4B0D5"/>
</linearGradient>
<linearGradient id="paint1_linear_585_19860" x1="104.111" y1="170.976" x2="84.3876" y2="114.775" gradientUnits="userSpaceOnUse">
<stop stop-color="#C4C8DE" stop-opacity="0.01"/>
<stop offset="1" stop-color="#6B798E"/>
</linearGradient>
<linearGradient id="paint2_linear_585_19860" x1="16.4492" y1="1.73302" x2="-7.87561" y2="176.888" gradientUnits="userSpaceOnUse">
<stop stop-color="#F6F8FA"/>
<stop offset="1" stop-color="#E9EDF3"/>
</linearGradient>
<linearGradient id="paint3_linear_585_19860" x1="29.7893" y1="41.1336" x2="20.7584" y2="163.166" gradientUnits="userSpaceOnUse">
<stop stop-color="#7B86A4"/>
<stop offset="1" stop-color="#454E6B"/>
</linearGradient>
<linearGradient id="paint4_linear_585_19860" x1="-15.3045" y1="131.664" x2="-14.2306" y2="173.072" gradientUnits="userSpaceOnUse">
<stop stop-color="#DFE2EA"/>
<stop offset="1" stop-color="#CBD0DE"/>
</linearGradient>
<clipPath id="clip0_585_19860">
<rect width="213" height="194" fill="white" transform="translate(5.06445 15)"/>
</clipPath>
</defs>
</svg>
