<svg width="16" height="16" viewBox="0 0 16 16" fill="none" xmlns="http://www.w3.org/2000/svg">
<path d="M14.276 1.724C14.026 1.47404 13.6869 1.33362 13.3333 1.33362C12.9798 1.33362 12.6407 1.47404 12.3907 1.724L8.00001 6.11467L3.60934 1.724C3.35787 1.48112 3.02107 1.34673 2.67147 1.34977C2.32188 1.35281 1.98746 1.49303 1.74025 1.74024C1.49304 1.98745 1.35281 2.32187 1.34977 2.67147C1.34674 3.02106 1.48113 3.35786 1.72401 3.60933L6.11467 8L1.72401 12.3907C1.59666 12.5137 1.49508 12.6608 1.4252 12.8235C1.35533 12.9861 1.31854 13.1611 1.31701 13.3381C1.31547 13.5152 1.3492 13.6907 1.41624 13.8546C1.48329 14.0185 1.58229 14.1673 1.70748 14.2925C1.83267 14.4177 1.98154 14.5167 2.1454 14.5838C2.30926 14.6508 2.48484 14.6845 2.66187 14.683C2.83891 14.6815 3.01387 14.6447 3.17655 14.5748C3.33922 14.5049 3.48634 14.4033 3.60934 14.276L8.00001 9.88533L12.3907 14.276C12.6421 14.5189 12.9789 14.6533 13.3285 14.6502C13.6781 14.6472 14.0126 14.507 14.2598 14.2598C14.507 14.0125 14.6472 13.6781 14.6502 13.3285C14.6533 12.9789 14.5189 12.6421 14.276 12.3907L9.88534 8L14.276 3.60933C14.526 3.3593 14.6664 3.02022 14.6664 2.66667C14.6664 2.31311 14.526 1.97404 14.276 1.724Z" fill="#4F525D"/>
</svg>
