<svg width="14" height="14" viewBox="0 0 14 14" fill="none" xmlns="http://www.w3.org/2000/svg">
<path d="M7 0C3.5875 0 0.875 2.7125 0.875 6.125C0.875 7.7875 1.4875 9.3625 2.7125 10.5C2.8 10.5875 6.3 13.7375 6.3875 13.825C6.7375 14.0875 7.2625 14.0875 7.525 13.825C7.6125 13.7375 11.2 10.5875 11.2 10.5C12.425 9.3625 13.0375 7.7875 13.0375 6.125C13.125 2.7125 10.4125 0 7 0ZM7 7.875C6.0375 7.875 5.25 7.0875 5.25 6.125C5.25 5.1625 6.0375 4.375 7 4.375C7.9625 4.375 8.75 5.1625 8.75 6.125C8.75 7.0875 7.9625 7.875 7 7.875Z" fill="#232734"/>
</svg>
