<svg width="12" height="10" viewBox="0 0 12 10" fill="none" xmlns="http://www.w3.org/2000/svg">
<path d="M6.0001 9.5C9.53035 9.5 11.8081 5.537 11.9033 5.369C12.0316 5.141 12.0323 4.862 11.9041 4.634C11.8096 4.46525 9.54835 0.5 6.0001 0.5C2.43385 0.5 0.188346 4.46675 0.0945956 4.6355C-0.0321544 4.86275 -0.0314044 5.1395 0.0960956 5.36675C0.190596 5.53475 2.45185 9.5 6.0001 9.5ZM6.0001 2C8.12935 2 9.7771 4.12625 10.3636 5C9.7756 5.8745 8.12785 8 6.0001 8C3.86935 8 2.2216 5.8715 1.63585 4.99925C2.2186 4.12625 3.8596 2 6.0001 2Z" fill="#4F525D"/>
<path d="M6 6.5C6.82843 6.5 7.5 5.82843 7.5 5C7.5 4.17157 6.82843 3.5 6 3.5C5.17157 3.5 4.5 4.17157 4.5 5C4.5 5.82843 5.17157 6.5 6 6.5Z" fill="#4F525D"/>
</svg>
