<svg width="12" height="12" viewBox="0 0 12 12" fill="none" xmlns="http://www.w3.org/2000/svg">
<path d="M6 8.25C5.8011 8.24996 5.61037 8.17091 5.46975 8.03025L2.46975 5.03025C2.33313 4.8888 2.25754 4.69935 2.25924 4.5027C2.26095 4.30605 2.33983 4.11794 2.47889 3.97889C2.61794 3.83983 2.80605 3.76095 3.0027 3.75924C3.19935 3.75754 3.3888 3.83313 3.53025 3.96975L6 6.4395L8.46975 3.96975C8.53894 3.89812 8.62169 3.84098 8.7132 3.80167C8.8047 3.76237 8.90312 3.74168 9.0027 3.74081C9.10228 3.73995 9.20104 3.75892 9.29322 3.79663C9.38539 3.83434 9.46913 3.89003 9.53955 3.96045C9.60997 4.03087 9.66566 4.11461 9.70337 4.20678C9.74108 4.29896 9.76005 4.39772 9.75919 4.4973C9.75832 4.59689 9.73763 4.6953 9.69833 4.7868C9.65902 4.87831 9.60188 4.96106 9.53025 5.03025L6.53025 8.03025C6.38963 8.17091 6.1989 8.24996 6 8.25Z" fill="#232734"/>
</svg>
