<svg width="14" height="12" viewBox="0 0 14 12" fill="none" xmlns="http://www.w3.org/2000/svg">
<path d="M11.6667 6.15876V9.5001H2.33333V6.15876L0 4.6001V10.6668C0 10.9762 0.122916 11.2729 0.341709 11.4917C0.560501 11.7105 0.857247 11.8334 1.16667 11.8334H12.8333C13.1428 11.8334 13.4395 11.7105 13.6583 11.4917C13.8771 11.2729 14 10.9762 14 10.6668V4.6001L11.6667 6.15876Z" fill="#C81D31"/>
<path d="M14 2.50008L7 7.16675L0 2.50008V1.33341C0 1.024 0.122916 0.727249 0.341709 0.508457C0.560501 0.289664 0.857247 0.166748 1.16667 0.166748H12.8333C13.1428 0.166748 13.4395 0.289664 13.6583 0.508457C13.8771 0.727249 14 1.024 14 1.33341V2.50008Z" fill="#C81D31"/>
</svg>
