<svg width="10" height="10" viewBox="0 0 10 10" fill="none" xmlns="http://www.w3.org/2000/svg">
<g clip-path="url(#clip0_683_3460)">
<path d="M9.81687 8.30813L8.125 6.61625C8.51875 5.96 8.75 5.19438 8.75 4.375C8.75 1.9625 6.78687 0 4.375 0C1.96312 0 0 1.9625 0 4.375C0 6.7875 1.96312 8.75 4.375 8.75C5.195 8.75 5.96 8.51937 6.61625 8.125L8.30812 9.81687C8.43 9.93875 8.59 10 8.75 10C8.91 10 9.07 9.93875 9.19187 9.81687L9.81687 9.19187C10.0612 8.9475 10.0612 8.5525 9.81687 8.30813ZM4.375 7.5C2.64937 7.5 1.25 6.10063 1.25 4.375C1.25 2.64937 2.64937 1.25 4.375 1.25C6.10062 1.25 7.5 2.64937 7.5 4.375C7.5 6.10063 6.10062 7.5 4.375 7.5Z" fill="#4F525D"/>
</g>
<defs>
<clipPath id="clip0_683_3460">
<rect width="10" height="10" fill="white"/>
</clipPath>
</defs>
</svg>
